<?xml version="1.0" encoding="utf-8"?>
<!-- Generator: Adobe Illustrator 14.0.0, SVG Export Plug-In . SVG Version: 6.00 Build 43363)  -->
<!DOCTYPE svg PUBLIC "-//W3C//DTD SVG 1.1//EN" "http://www.w3.org/Graphics/SVG/1.1/DTD/svg11.dtd">
<svg version="1.1" id="Layer_1" xmlns="http://www.w3.org/2000/svg" xmlns:xlink="http://www.w3.org/1999/xlink" x="0px" y="0px"
	 width="832.031px" height="324.581px" viewBox="0 0 832.031 324.581" enable-background="new 0 0 832.031 324.581"
	 xml:space="preserve">
<path d="M557.97,192.994c0,0,11.39-8.764,19.901-45.688c0,0-2.503-3.13,1.627-6.009c0,0,1.503-1.25,5.759-2.252
	c0,0,7.259-0.626,9.763,0.125c0,0,3.63,0.126,7.76,2.127c0,0,15.146,5.509,18.776,6.51c0,0,2.003,0.875,3.005-1.878
	c0,0-0.377-1.876,1.625-4.881c0,0-57.804-12.737-35.2-65.965c0,0-0.001-4.011-2.37-7.656c0,0-17.316-30.989-1.641-49.035
	c0,0,9.662-12.579,20.78-11.485c0,0,3.282,0.365,0.73,2.552c0,0-7.839,6.197-8.568,20.052c0,0,0.548,5.65,5.651,7.109
	c0,0,2.917,2.553,0.183,4.192l-1.823,1.822l-2.188,5.652c0,0,1.276,5.103,7.291,6.744c0,0,10.938-10.937,34.453-7.838
	c0,0,1.094,0.182,3.281-2.552c0,0,2.188-2.917-0.364-6.928c0,0-2.006-2.734-5.287-4.375c0,0-2.187-0.91,0.365-2.916l3.281-5.651
	c0,0,1.457-3.828-0.912-6.562c0,0-2.369-7.292-12.395-14.4c0,0-5.105-1.276,1.275-3.463c0,0,8.75-1.824,18.411,2.916
	c0,0,10.026,6.38,13.854,20.234c0,0,3.464,13.673-1.094,28.621c0,0,42.838,20.781,16.405,66.899c0,0,4.74,2.005,6.928,5.65
	c0,0,8.749-5.833,16.954-7.109c0,0,6.014-1.458,7.839,1.824c0,0,1.64-0.366,5.103,10.208c0,0,28.62,0.909,41.562,25.702
	c0,0,3.704,5.923,9.727,36.122c1.668,8.365-20.117,1.065-20.117,1.065s-2.188-0.183-3.464,2.006c0,0-53.957,34.998-89.321-6.928
	c0,0-4.739,10.209-8.203,14.948l-11.121-1.277c0,0,3.101,1.095,11.304-20.233c0,0-5.104-1.277-6.562-3.829
	c0,0-17.683,4.56-40.468,4.741c0,0-4.011-0.002-4.922,2.368c0,0-4.012,3.828-4.194,6.198l-18.592,1.457c0,0,5.65-0.911,11.483-8.201
	c0,0-1.641-2.916,1.641-5.287c0,0,2.188-6.197,17.864-8.385c0,0,20.417-1.458,26.614-1.458c0,0-3.463-3.646-4.374-8.386
	c0,0-31.901-7.838-36.641-10.571l-2.552-0.367c0,0,0,4.741-1.094,8.022c0,0-5.469,17.864-6.745,20.052c0,0-5.104,11.119-9.48,15.312
	L557.97,192.994z"/>
<rect y="185.634" fill="#990000" width="832.031" height="138.946"/>
<rect x="7.664" y="192.64" fill="#FFFFFF" width="816.703" height="124.935"/>
<rect x="14.329" y="198.632" fill="#990000" width="803.373" height="112.95"/>
<path fill="#FFFFFF" d="M104.002,291.466v-11.34h4.425l0.302-0.428l-11.062-17.758l-8.849,8.344v8.559l0.201,0.428l6.536,2.354
	v9.842H66.294v-11.34h5.933l0.302-0.428v-42.146l-0.201-0.429l-6.436-2.674v-9.842h29.563v11.34H89.12l-0.302,0.427v21.288
	l21.317-20.646v-0.427l-3.318-1.07l-3.318-1.069v-9.842h30.669v11.34h-4.021l-1.006,0.32l-20.11,17.651l17.999,24.924l0.604,0.535
	l6.938,2.246v9.842H104.002z"/>
<path fill="#FFFFFF" d="M170.569,293.177c-23.127,0-30.367-11.98-30.367-33.482c0-29.524,14.178-36.585,33.585-36.585
	c23.128,0,30.368,11.981,30.368,33.483C204.155,286.117,189.977,293.177,170.569,293.177z M172.078,234.664
	c-11.464,0-14.982,6.419-14.982,21.608c0,21.288,2.514,25.245,15.184,25.245c11.463,0,14.982-6.418,14.982-21.607
	C187.262,238.728,184.949,234.664,172.078,234.664z"/>
<path fill="#FFFFFF" d="M283.19,235.948h-5.934l-0.301,0.427v56.055h-19.508l-24.234-51.562h-1.508v37.655l0.201,0.428l8.346,2.674
	v9.842h-27.25v-11.34h5.933l0.302-0.428v-42.146l-0.201-0.429l-6.436-2.674v-9.842h27.552l22.726,49.208h1.509v-36.264l-0.201-0.429
	l-8.347-2.674v-9.842h27.352V235.948z"/>
<path fill="#FFFFFF" d="M353.277,268.039h-6.436l-0.302,0.428v8.023l6.134,2.033c0,0,0,8.129,0,8.879
	c-9.15,3.207-19.005,5.775-30.971,5.775c-23.229,0-30.87-11.66-30.87-33.482c0-29.203,13.775-36.585,32.982-36.585
	c6.334,0,9.05,0.964,12.268,2.033l10.96-3.103v25.14h-10.859l-2.917-10.057c-3.519-1.604-6.335-2.46-11.161-2.46
	c-10.257,0-14.38,6.953-14.38,21.608c0,20.966,2.916,25.138,15.688,25.138c3.317,0,6.133-0.535,8.346-1.391v-10.91l-0.201-0.428
	l-8.547-2.141V256.7h30.267V268.039z"/>
<path fill="#FFFFFF" d="M405.164,291.466l-5.531-11.553l-7.441-14.977l-6.837,1.068v12.838l0.2,0.428l5.33,2.139v10.057H362.83
	v-11.34h5.932l0.303-0.428v-42.146l-0.201-0.429l-6.436-2.674v-9.842h30.066c21.016,0,27.854,4.278,27.854,18.935
	c0,10.804-5.129,16.795-13.374,19.896l10.458,15.404l0.604,0.535l6.033,2.246v9.842H405.164z M390.08,235.948h-4.726v19.896
	l6.033,0.855c7.44-1.712,11.161-4.065,11.161-11.231C402.549,238.086,400.236,235.948,390.08,235.948z"/>
<path fill="#FFFFFF" d="M488.322,291.466h-58.824v-11.34h5.933l0.302-0.428v-42.146l-0.201-0.429l-6.436-2.674v-9.842h60.031v24.925
	h-11.664l-1.308-7.595c-1.106-5.456-2.312-5.99-21.217-5.99h-2.916v17.65h4.224c3.419,0,4.122-0.428,4.927-3.21l1.106-4.6h9.25
	l-2.412,24.176h-7.743l-1.106-4.814c-0.805-2.354-1.509-2.781-4.021-2.781h-4.224v17.758h2.916c18.301,0,19.105-0.428,20.915-6.525
	l2.111-6.953h12.269L488.322,291.466z"/>
<path fill="#FFFFFF" d="M560.923,268.039h-6.437l-0.301,0.428v8.023l6.134,2.033c0,0,0,8.129,0,8.879
	c-9.151,3.207-19.005,5.775-30.971,5.775c-23.229,0-30.871-11.66-30.871-33.482c0-29.203,13.775-36.585,32.982-36.585
	c6.335,0,9.05,0.964,12.268,2.033l10.961-3.103v25.14h-10.86l-2.916-10.057c-3.52-1.604-6.335-2.46-11.161-2.46
	c-10.258,0-14.38,6.953-14.38,21.608c0,20.966,2.916,25.138,15.687,25.138c3.318,0,6.134-0.535,8.346-1.391v-10.91l-0.2-0.428
	l-8.547-2.141V256.7h30.267V268.039z"/>
<path fill="#FFFFFF" d="M603.154,291.466v-11.34h4.929l0.301-0.428l-1.608-8.879h-20.111l-1.609,8.023l0.201,0.428l6.134,2.354
	v9.842h-25.642v-11.34h5.933l0.503-0.428l14.782-48.993v-4.172l22.223-3.53l16.692,55.84l0.302,0.535l6.837,2.246v9.842H603.154z
	 M597.523,235.84h-1.508l-6.134,24.925h13.474L597.523,235.84z"/>
<path fill="#FFFFFF" d="M685.394,250.923l-1.811-10.162c-0.703-3.53-1.105-5.028-7.139-5.028h-3.419v43.11l0.201,0.428l9.05,2.354
	v9.842h-34.289v-11.34h8.446l0.302-0.428v-43.966h-2.916c-5.33,0-5.933,1.391-6.637,4.172l-3.218,11.019h-12.269l1.911-26.315h63.45
	v26.315H685.394z"/>
<path fill="#FFFFFF" d="M764.229,291.466h-58.825v-11.34h5.934l0.301-0.428v-42.146l-0.2-0.429l-6.436-2.674v-9.842h60.03v24.925
	h-11.664l-1.308-7.595c-1.105-5.456-2.312-5.99-21.217-5.99h-2.916v17.65h4.224c3.419,0,4.122-0.428,4.927-3.21l1.106-4.6h9.251
	l-2.413,24.176h-7.743l-1.105-4.814c-0.805-2.354-1.508-2.781-4.022-2.781h-4.224v17.758h2.916c18.302,0,19.105-0.428,20.916-6.525
	l2.111-6.953h12.268L764.229,291.466z"/>
</svg>
