<?xml version="1.0" encoding="UTF-8" standalone="no"?>
<svg
   xmlns:dc="http://purl.org/dc/elements/1.1/"
   xmlns:cc="http://creativecommons.org/ns#"
   xmlns:rdf="http://www.w3.org/1999/02/22-rdf-syntax-ns#"
   xmlns:svg="http://www.w3.org/2000/svg"
   xmlns="http://www.w3.org/2000/svg"
   version="1.1"
   viewBox="0 0 119.66407 40"
   height="40"
   width="119.66407"
   id="livetype">
  <metadata
     id="metadata4644">
    <rdf:RDF>
      <cc:Work
         rdf:about="">
        <dc:format>image/svg+xml</dc:format>
        <dc:type
           rdf:resource="http://purl.org/dc/dcmitype/StillImage" />
        <dc:title>Download_on_the_App_Store_Badge_US-UK_RGB_blk_4SVG_092917</dc:title>
      </cc:Work>
    </rdf:RDF>
  </metadata>
  <defs
     id="defs4642" />
  <title
     id="title4575">Download_on_the_App_Store_Badge_US-UK_RGB_blk_4SVG_092917</title>
  <path
     d="M 110.13477,0 H 9.53468 C 9.16798,0 8.80568,0 8.43995,0.002 8.1338,0.004 7.83009,0.00981 7.521,0.0147 a 13.21476,13.21476 0 0 0 -2.0039,0.17671 6.66509,6.66509 0 0 0 -1.90088,0.627 6.43779,6.43779 0 0 0 -1.61865,1.17866 6.25844,6.25844 0 0 0 -1.17822,1.62109 6.60119,6.60119 0 0 0 -0.625,1.90332 12.993,12.993 0 0 0 -0.1792,2.002 C 0.00587,7.83008 0.00489,8.1377 0,8.44434 V 31.5586 c 0.00489,0.3105 0.00587,0.6113 0.01515,0.9219 a 12.99232,12.99232 0 0 0 0.1792,2.0019 6.58756,6.58756 0 0 0 0.625,1.9043 6.20778,6.20778 0 0 0 1.17822,1.6143 6.27445,6.27445 0 0 0 1.61865,1.1787 6.70082,6.70082 0 0 0 1.90088,0.6308 13.45514,13.45514 0 0 0 2.0039,0.1768 C 7.83009,39.9941 8.1338,39.998 8.43995,39.998 8.80567,40 9.168,40 9.53468,40 h 100.60009 c 0.3594,0 0.7246,0 1.084,-0.002 0.3047,0 0.6172,-0.0039 0.9219,-0.0107 a 13.279,13.279 0 0 0 2,-0.1768 6.80432,6.80432 0 0 0 1.9082,-0.6308 6.27742,6.27742 0 0 0 1.6172,-1.1787 6.39482,6.39482 0 0 0 1.1816,-1.6143 6.60413,6.60413 0 0 0 0.6191,-1.9043 13.50643,13.50643 0 0 0 0.1856,-2.0019 c 0.004,-0.3106 0.004,-0.6114 0.004,-0.9219 0.008,-0.3633 0.008,-0.7246 0.008,-1.0938 V 9.53613 c 0,-0.36621 0,-0.72949 -0.008,-1.09179 0,-0.30664 0,-0.61426 -0.004,-0.9209 a 13.5071,13.5071 0 0 0 -0.1856,-2.002 6.6177,6.6177 0 0 0 -0.6191,-1.90332 6.46619,6.46619 0 0 0 -2.7988,-2.7998 6.76754,6.76754 0 0 0 -1.9082,-0.627 13.04394,13.04394 0 0 0 -2,-0.17676 c -0.3047,-0.00488 -0.6172,-0.01074 -0.9219,-0.01269 -0.3594,-0.002 -0.7246,-0.002 -1.084,-0.002 z"
     style="fill:#a6a6a6"
     id="path4577" />
  <path
     d="m 8.44483,39.125 c -0.30468,0 -0.602,-0.0039 -0.90429,-0.0107 A 12.68714,12.68714 0 0 1 5.6714,38.9512 5.88381,5.88381 0 0 1 4.01466,38.4033 5.40573,5.40573 0 0 1 2.61766,37.3867 5.32082,5.32082 0 0 1 1.59715,35.9902 5.72186,5.72186 0 0 1 1.05415,34.333 12.41351,12.41351 0 0 1 0.88765,32.458 C 0.88131,32.2471 0.87301,31.5449 0.87301,31.5449 V 8.44434 c 0,0 0.00884,-0.69141 0.01469,-0.89454 A 12.37039,12.37039 0 0 1 1.05323,5.67773 5.7555,5.7555 0 0 1 1.59669,4.01563 5.37349,5.37349 0 0 1 2.61183,2.61768 5.56543,5.56543 0 0 1 4.01417,1.59521 5.82309,5.82309 0 0 1 5.66749,1.05127 12.58589,12.58589 0 0 1 7.543,0.88721 L 8.44532,0.875 h 102.76855 l 0.9131,0.0127 a 12.38493,12.38493 0 0 1 1.8584,0.16259 5.93833,5.93833 0 0 1 1.6709,0.54785 5.59374,5.59374 0 0 1 2.415,2.41993 5.76267,5.76267 0 0 1 0.5352,1.64892 12.995,12.995 0 0 1 0.1738,1.88721 c 0.003,0.2832 0.003,0.5874 0.003,0.89014 0.008,0.375 0.008,0.73193 0.008,1.09179 V 30.4648 c 0,0.3633 0,0.7178 -0.008,1.0752 0,0.3252 0,0.6231 -0.004,0.9297 a 12.73126,12.73126 0 0 1 -0.1709,1.8535 5.739,5.739 0 0 1 -0.54,1.67 5.48029,5.48029 0 0 1 -1.0156,1.3857 5.4129,5.4129 0 0 1 -1.3994,1.0225 5.86168,5.86168 0 0 1 -1.668,0.5498 12.54218,12.54218 0 0 1 -1.8692,0.1631 c -0.2929,0.0068 -0.5996,0.0107 -0.8974,0.0107 l -1.084,0.002 z"
     id="path4579" />
  <g
     id="_Group_2"
     data-name="&lt;Group&gt;" />
  <path
     id="path4658"
     d="M 6.2632214,7.9999999 H 30.263221 V 32 H 6.2632214 Z"
     style="fill:none" />
  <path
     style="fill:#ffffff"
     id="path4660"
     d="m 26.263221,26 c 1.1,0 1.99,-0.9 1.99,-2 l 0.01,-10 c 0,-1.1 -0.9,-2 -2,-2 h -16 c -1.0999996,0 -1.9999996,0.9 -1.9999996,2 v 10 c 0,1.1 0.9,2 1.9999996,2 H 6.2632214 v 2 H 30.263221 v -2 z m -16,-12 h 16 v 10 h -16 z" />
  <text
     id="text5298"
     y="9.3153286"
     x="36.710918"
     style="font-style:normal;font-weight:normal;font-size:24px;line-height:1.25;font-family:sans-serif;letter-spacing:0px;word-spacing:0px;fill:#ffffff;fill-opacity:1;stroke:none;"
     xml:space="preserve"><tspan
       y="48.241425"
       x="36.710918"
       id="tspan5296" /></text>
  <text
     id="text5302"
     y="33.850765"
     x="35.788536"
     style="font-style:normal;font-weight:normal;font-size:21.33333333px;line-height:1.25;font-family:sans-serif;letter-spacing:0px;word-spacing:0px;fill:#ffffff;fill-opacity:1;stroke:#ffffff;"
     xml:space="preserve"><tspan
       y="72.776863"
       x="35.788536"
       id="tspan5300" /></text>
  <text
     id="text5306"
     y="35.44957"
     x="34.06675"
     style="font-style:normal;font-weight:normal;font-size:42.66666794px;line-height:1.25;font-family:sans-serif;letter-spacing:0px;word-spacing:0px;fill:#000000;fill-opacity:1;stroke:none"
     xml:space="preserve"><tspan
       y="74.375664"
       x="34.06675"
       id="tspan5304"></tspan></text>
  <text
     id="text5310"
     y="18.334759"
     x="35.973011"
     style="font-style:normal;font-weight:normal;font-size:21.33333397px;line-height:0.5;font-family:sans-serif;letter-spacing:0px;word-spacing:0px;fill:#000000;fill-opacity:1;stroke:none"
     xml:space="preserve"><tspan
       id="tspan5312"
       style="font-style:normal;font-variant:normal;font-weight:normal;font-stretch:normal;font-size:10.66666698px;line-height:0.5;font-family:sans-serif;-inkscape-font-specification:sans-serif;fill:#ffffff;stroke:none"
       y="18.334759"
       x="35.973011">PC  Mac  Linux</tspan><tspan
       id="tspan5316"
       style="font-style:normal;font-variant:normal;font-weight:normal;font-stretch:normal;font-size:10.66666698px;line-height:0.5;font-family:sans-serif;-inkscape-font-specification:sans-serif;fill:#ffffff;stroke:none"
       y="29.399616"
       x="35.973011"> Web Browser</tspan></text>
</svg>
